<?xml version="1.0" encoding="utf-8"?>
<!-- Generator: Adobe Illustrator 25.4.1, SVG Export Plug-In . SVG Version: 6.00 Build 0)  -->
<svg version="1.1" id="Lager_1" xmlns="http://www.w3.org/2000/svg" xmlns:xlink="http://www.w3.org/1999/xlink" x="0px" y="0px"
	 viewBox="0 0 322.28 322.28" style="enable-background:new 0 0 322.28 322.28;" xml:space="preserve">
<style type="text/css">
	.st0{fill:#121F2B;}
</style>
<g>
	<path class="st0" d="M230.78,240.75L149.27,4.23C148.21,1.41,145.02,0,142.19,0H88.68c-2.83,0-5.67,1.41-6.73,4.23L0.44,240.75
		c-1.42,3.52,0.71,5.99,4.61,5.99h52.8c2.84,0,4.96-1.06,6.02-4.23l9.21-29.61h84.69l9.21,29.61c1.06,3.17,3.54,4.23,6.38,4.23h52.8
		C230.07,246.75,232.19,244.28,230.78,240.75z M90.45,158.62l25.16-80.37l25.16,80.37H90.45z"/>
	<path class="st0" d="M265.94,246.75h50.67c3.19,0,5.67-2.47,5.67-5.64V5.64c0-3.17-2.48-5.64-5.67-5.64h-50.67
		c-3.19,0-5.32,2.47-5.32,5.64v235.47C260.62,244.28,262.75,246.75,265.94,246.75z"/>
	<path class="st0" d="M9.84,322.28c5.64,0,10.05-3.18,10.05-8.87c0-5.18-3.59-7.37-7.27-9.14l-3.59-1.73
		c-2.73-1.32-4.05-2.59-4.05-4.82c0-2.77,2.18-4.27,5.09-4.27c2.46,0,4.27,1.05,6.09,2.96c0.36,0.36,0.73,0.36,1.05-0.05l1.45-1.68
		c0.27-0.36,0.36-0.64-0.05-1.05c-2.14-2.55-5-4.09-8.68-4.09c-5.05,0-9.09,3.09-9.09,8.23c0,4.05,2.46,6.46,5.82,8l3.86,1.86
		c2.96,1.41,5.23,2.68,5.23,5.77c0,3.05-2.23,4.96-5.96,4.96c-3.18,0-5.27-1.41-7-3.55c-0.32-0.32-0.73-0.41-1.05-0.05l-1.5,1.73
		c-0.32,0.36-0.32,0.64-0.09,1C1.93,320.06,5.12,322.28,9.84,322.28z"/>
	<path class="st0" d="M62.31,321.74h3.32c0.36,0,0.64-0.14,0.77-0.55l8.23-25.96l8.18,25.96c0.14,0.41,0.41,0.55,0.82,0.55h3.27
		c0.36,0,0.68-0.14,0.82-0.55l9.32-30.51c0.14-0.45-0.05-0.77-0.55-0.77h-3c-0.36,0-0.64,0.14-0.77,0.55l-7.59,25.55l-8.23-25.55
		c-0.14-0.41-0.36-0.55-0.73-0.55h-3.09c-0.41,0-0.64,0.14-0.77,0.55l-8.23,25.55l-7.59-25.55c-0.09-0.41-0.41-0.55-0.77-0.55h-3
		c-0.5,0-0.68,0.32-0.55,0.77l9.37,30.51C61.63,321.6,61.94,321.74,62.31,321.74z"/>
	<path class="st0" d="M132.66,321.74h15.5c0.41,0,0.64-0.23,0.64-0.64v-2.5c0-0.41-0.23-0.68-0.64-0.68h-11.91v-10.64h11.28
		c0.41,0,0.64-0.23,0.64-0.64v-2.5c0-0.41-0.23-0.64-0.64-0.64h-11.28v-9.82h11.87c0.41,0,0.68-0.23,0.68-0.64v-2.5
		c0-0.41-0.27-0.64-0.68-0.64h-15.46c-0.41,0-0.68,0.23-0.68,0.64v30.55C131.97,321.51,132.25,321.74,132.66,321.74z"/>
	<path class="st0" d="M186.01,321.74h7.59c10.96,0,16.19-6.87,16.19-15.91c0-9.05-5.23-15.91-16.19-15.91h-7.59
		c-0.41,0-0.68,0.23-0.68,0.64v30.55C185.33,321.51,185.6,321.74,186.01,321.74z M189.6,317.92v-24.23h3.91
		c8.23,0,11.96,4.55,11.96,12.14s-3.73,12.09-11.96,12.09H189.6z"/>
	<path class="st0" d="M246.24,321.74h15.5c0.41,0,0.64-0.23,0.64-0.64v-2.5c0-0.41-0.23-0.68-0.64-0.68h-11.91v-10.64h11.28
		c0.41,0,0.64-0.23,0.64-0.64v-2.5c0-0.41-0.23-0.64-0.64-0.64h-11.28v-9.82h11.87c0.41,0,0.68-0.23,0.68-0.64v-2.5
		c0-0.41-0.27-0.64-0.68-0.64h-15.46c-0.41,0-0.68,0.23-0.68,0.64v30.55C245.56,321.51,245.83,321.74,246.24,321.74z"/>
	<path class="st0" d="M321.64,289.91h-2.96c-0.41,0-0.64,0.23-0.64,0.64v24.87l-13.91-25.05c-0.18-0.32-0.45-0.45-0.82-0.45h-3.73
		c-0.41,0-0.68,0.23-0.68,0.64v30.55c0,0.41,0.27,0.64,0.68,0.64h2.96c0.41,0,0.64-0.23,0.64-0.64v-24.78l13.87,24.96
		c0.18,0.32,0.45,0.45,0.82,0.45h3.77c0.41,0,0.64-0.23,0.64-0.64v-30.55C322.28,290.14,322.05,289.91,321.64,289.91z"/>
</g>
</svg>
